<svg xmlns="http://www.w3.org/2000/svg" viewBox="0 0 300 410" role="img" aria-label="Arrakis pedal icon"><style>@import url('https://fonts.googleapis.com/css2?family=Press+Start+2P&amp;display=swap');</style><rect x="6" y="70" width="10" height="22" rx="2" fill="none" stroke="#475569" stroke-width="3"/><rect x="284" y="70" width="10" height="22" rx="2" fill="none" stroke="#475569" stroke-width="3"/><rect x="16" y="16" width="268" height="334" rx="12" fill="none" stroke="#475569" stroke-width="5"/><text x="78" y="56" text-anchor="middle" font-family="'Press Start 2P',monospace" font-size="11" fill="#475569">PITCH</text><text x="150" y="56" text-anchor="middle" font-family="'Press Start 2P',monospace" font-size="11" fill="#475569">DETUNE</text><text x="222" y="56" text-anchor="middle" font-family="'Press Start 2P',monospace" font-size="11" fill="#475569">MIX</text><circle cx="78" cy="108" r="22" fill="none" stroke="#475569" stroke-width="4"/><circle cx="78" cy="108" r="3" fill="#475569"/><line x1="78" y1="108" x2="78" y2="90" stroke="#475569" stroke-width="4" stroke-linecap="round"/><line x1="103.0" y1="108.0" x2="107.0" y2="108.0" stroke="#475569" stroke-width="2"/><line x1="95.7" y1="125.7" x2="98.5" y2="128.5" stroke="#475569" stroke-width="2"/><line x1="78.0" y1="133.0" x2="78.0" y2="137.0" stroke="#475569" stroke-width="2"/><line x1="60.3" y1="125.7" x2="57.5" y2="128.5" stroke="#475569" stroke-width="2"/><line x1="53.0" y1="108.0" x2="49.0" y2="108.0" stroke="#475569" stroke-width="2"/><line x1="60.3" y1="90.3" x2="57.5" y2="87.5" stroke="#475569" stroke-width="2"/><line x1="78.0" y1="83.0" x2="78.0" y2="79.0" stroke="#475569" stroke-width="2"/><line x1="95.7" y1="90.3" x2="98.5" y2="87.5" stroke="#475569" stroke-width="2"/><circle cx="150" cy="108" r="22" fill="none" stroke="#475569" stroke-width="4"/><circle cx="150" cy="108" r="3" fill="#475569"/><line x1="150" y1="108" x2="150" y2="90" stroke="#475569" stroke-width="4" stroke-linecap="round"/><line x1="175.0" y1="108.0" x2="179.0" y2="108.0" stroke="#475569" stroke-width="2"/><line x1="167.7" y1="125.7" x2="170.5" y2="128.5" stroke="#475569" stroke-width="2"/><line x1="150.0" y1="133.0" x2="150.0" y2="137.0" stroke="#475569" stroke-width="2"/><line x1="132.3" y1="125.7" x2="129.5" y2="128.5" stroke="#475569" stroke-width="2"/><line x1="125.0" y1="108.0" x2="121.0" y2="108.0" stroke="#475569" stroke-width="2"/><line x1="132.3" y1="90.3" x2="129.5" y2="87.5" stroke="#475569" stroke-width="2"/><line x1="150.0" y1="83.0" x2="150.0" y2="79.0" stroke="#475569" stroke-width="2"/><line x1="167.7" y1="90.3" x2="170.5" y2="87.5" stroke="#475569" stroke-width="2"/><circle cx="222" cy="108" r="22" fill="none" stroke="#475569" stroke-width="4"/><circle cx="222" cy="108" r="3" fill="#475569"/><line x1="222" y1="108" x2="222" y2="90" stroke="#475569" stroke-width="4" stroke-linecap="round"/><line x1="247.0" y1="108.0" x2="251.0" y2="108.0" stroke="#475569" stroke-width="2"/><line x1="239.7" y1="125.7" x2="242.5" y2="128.5" stroke="#475569" stroke-width="2"/><line x1="222.0" y1="133.0" x2="222.0" y2="137.0" stroke="#475569" stroke-width="2"/><line x1="204.3" y1="125.7" x2="201.5" y2="128.5" stroke="#475569" stroke-width="2"/><line x1="197.0" y1="108.0" x2="193.0" y2="108.0" stroke="#475569" stroke-width="2"/><line x1="204.3" y1="90.3" x2="201.5" y2="87.5" stroke="#475569" stroke-width="2"/><line x1="222.0" y1="83.0" x2="222.0" y2="79.0" stroke="#475569" stroke-width="2"/><line x1="239.7" y1="90.3" x2="242.5" y2="87.5" stroke="#475569" stroke-width="2"/><circle cx="168" cy="154" r="7" fill="none" stroke="#475569" stroke-width="3"/><polyline points="118.0,192.0 121.2,188.8 124.4,186.3 127.6,185.1 130.8,185.3 134.0,187.1 137.2,189.8 140.4,193.1 143.6,196.1 146.8,198.2 150.0,199.0 153.2,198.2 156.4,196.1 159.6,193.1 162.8,189.8 166.0,187.1 169.2,185.3 172.4,185.1 175.6,186.3 178.8,188.8 182.0,192.0" fill="none" stroke="#475569" stroke-width="3" stroke-linecap="round"/><polyline points="118.0,198.8 121.2,198.0 124.4,198.3 127.6,199.7 130.8,201.7 134.0,204.1 137.2,206.2 140.4,207.6 143.6,208.0 146.8,207.3 150.0,205.7 153.2,203.5 156.4,201.2 159.6,199.3 162.8,198.2 166.0,198.1 169.2,199.1 172.4,201.0 175.6,203.3 178.8,205.5 182.0,207.2" fill="none" stroke="#475569" stroke-width="3" stroke-linecap="round"/><text x="150" y="246" text-anchor="middle" font-family="'Press Start 2P',monospace" font-size="21" fill="#475569">ARRAKIS</text><polygon points="170.3,308.4 158.4,320.3 141.6,320.3 129.7,308.4 129.7,291.6 141.6,279.7 158.4,279.7 170.3,291.6" fill="none" stroke="#475569" stroke-width="4"/><circle cx="150" cy="300" r="9" fill="none" stroke="#475569" stroke-width="3"/><text x="150" y="390" text-anchor="middle" font-family="Helvetica,Arial,sans-serif" font-size="22" fill="#475569">Arrakis</text></svg>