<svg xmlns="http://www.w3.org/2000/svg" viewBox="0 0 300 384" role="img" aria-label="Flower pedal icon"><style>@import url('https://fonts.googleapis.com/css2?family=Press+Start+2P&amp;display=swap');.px{font-family:'Press Start 2P',monospace}.lb{font-family:Helvetica,Arial,sans-serif}</style><rect x="6" y="74" width="10" height="22" rx="2" fill="none" stroke="#475569" stroke-width="3"/><rect x="284" y="74" width="10" height="22" rx="2" fill="none" stroke="#475569" stroke-width="3"/><rect x="16" y="18" width="268" height="306" rx="12" fill="none" stroke="#475569" stroke-width="5"/><text class="px" x="78" y="68" text-anchor="middle" font-size="11" fill="#475569">RATE</text><text class="px" x="150" y="68" text-anchor="middle" font-size="11" fill="#475569">RESO</text><text class="px" x="222" y="68" text-anchor="middle" font-size="11" fill="#475569">MIX</text><circle cx="78" cy="120" r="26" fill="none" stroke="#475569" stroke-width="4"/><circle cx="78" cy="120" r="3.5" fill="#475569"/><line x1="78" y1="120" x2="78" y2="98" stroke="#475569" stroke-width="4" stroke-linecap="round"/><line x1="108.0" y1="120.0" x2="112.0" y2="120.0" stroke="#475569" stroke-width="2.5"/><line x1="99.2" y1="141.2" x2="102.0" y2="144.0" stroke="#475569" stroke-width="2.5"/><line x1="78.0" y1="150.0" x2="78.0" y2="154.0" stroke="#475569" stroke-width="2.5"/><line x1="56.8" y1="141.2" x2="54.0" y2="144.0" stroke="#475569" stroke-width="2.5"/><line x1="48.0" y1="120.0" x2="44.0" y2="120.0" stroke="#475569" stroke-width="2.5"/><line x1="56.8" y1="98.8" x2="54.0" y2="96.0" stroke="#475569" stroke-width="2.5"/><line x1="78.0" y1="90.0" x2="78.0" y2="86.0" stroke="#475569" stroke-width="2.5"/><line x1="99.2" y1="98.8" x2="102.0" y2="96.0" stroke="#475569" stroke-width="2.5"/><circle cx="150" cy="120" r="26" fill="none" stroke="#475569" stroke-width="4"/><circle cx="150" cy="120" r="3.5" fill="#475569"/><line x1="150" y1="120" x2="150" y2="98" stroke="#475569" stroke-width="4" stroke-linecap="round"/><line x1="180.0" y1="120.0" x2="184.0" y2="120.0" stroke="#475569" stroke-width="2.5"/><line x1="171.2" y1="141.2" x2="174.0" y2="144.0" stroke="#475569" stroke-width="2.5"/><line x1="150.0" y1="150.0" x2="150.0" y2="154.0" stroke="#475569" stroke-width="2.5"/><line x1="128.8" y1="141.2" x2="126.0" y2="144.0" stroke="#475569" stroke-width="2.5"/><line x1="120.0" y1="120.0" x2="116.0" y2="120.0" stroke="#475569" stroke-width="2.5"/><line x1="128.8" y1="98.8" x2="126.0" y2="96.0" stroke="#475569" stroke-width="2.5"/><line x1="150.0" y1="90.0" x2="150.0" y2="86.0" stroke="#475569" stroke-width="2.5"/><line x1="171.2" y1="98.8" x2="174.0" y2="96.0" stroke="#475569" stroke-width="2.5"/><circle cx="222" cy="120" r="26" fill="none" stroke="#475569" stroke-width="4"/><circle cx="222" cy="120" r="3.5" fill="#475569"/><line x1="222" y1="120" x2="222" y2="98" stroke="#475569" stroke-width="4" stroke-linecap="round"/><line x1="252.0" y1="120.0" x2="256.0" y2="120.0" stroke="#475569" stroke-width="2.5"/><line x1="243.2" y1="141.2" x2="246.0" y2="144.0" stroke="#475569" stroke-width="2.5"/><line x1="222.0" y1="150.0" x2="222.0" y2="154.0" stroke="#475569" stroke-width="2.5"/><line x1="200.8" y1="141.2" x2="198.0" y2="144.0" stroke="#475569" stroke-width="2.5"/><line x1="192.0" y1="120.0" x2="188.0" y2="120.0" stroke="#475569" stroke-width="2.5"/><line x1="200.8" y1="98.8" x2="198.0" y2="96.0" stroke="#475569" stroke-width="2.5"/><line x1="222.0" y1="90.0" x2="222.0" y2="86.0" stroke="#475569" stroke-width="2.5"/><line x1="243.2" y1="98.8" x2="246.0" y2="96.0" stroke="#475569" stroke-width="2.5"/><text class="px" x="150" y="222" text-anchor="middle" font-size="21" fill="#475569">FLOWER</text><polygon points="172.2,289.2 159.2,302.2 140.8,302.2 127.8,289.2 127.8,270.8 140.8,257.8 159.2,257.8 172.2,270.8" fill="none" stroke="#475569" stroke-width="4"/><circle cx="150" cy="280" r="9" fill="none" stroke="#475569" stroke-width="3"/><text class="lb" x="150" y="360" text-anchor="middle" font-size="22" fill="#475569">Flower</text></svg>