<svg xmlns="http://www.w3.org/2000/svg" viewBox="0 0 300 410" role="img" aria-label="Lush pedal icon"><style>@import url('https://fonts.googleapis.com/css2?family=Press+Start+2P&amp;display=swap');</style><rect x="6" y="70" width="10" height="22" rx="2" fill="none" stroke="#475569" stroke-width="3"/><rect x="284" y="70" width="10" height="22" rx="2" fill="none" stroke="#475569" stroke-width="3"/><rect x="16" y="16" width="268" height="334" rx="12" fill="none" stroke="#475569" stroke-width="5"/><text x="108" y="56" text-anchor="middle" font-family="'Press Start 2P',monospace" font-size="11" fill="#475569">SPEED</text><text x="192" y="56" text-anchor="middle" font-family="'Press Start 2P',monospace" font-size="11" fill="#475569">DEPTH</text><circle cx="108" cy="108" r="22" fill="none" stroke="#475569" stroke-width="4"/><circle cx="108" cy="108" r="3" fill="#475569"/><line x1="108" y1="108" x2="108" y2="90" stroke="#475569" stroke-width="4" stroke-linecap="round"/><line x1="133.0" y1="108.0" x2="137.0" y2="108.0" stroke="#475569" stroke-width="2"/><line x1="125.7" y1="125.7" x2="128.5" y2="128.5" stroke="#475569" stroke-width="2"/><line x1="108.0" y1="133.0" x2="108.0" y2="137.0" stroke="#475569" stroke-width="2"/><line x1="90.3" y1="125.7" x2="87.5" y2="128.5" stroke="#475569" stroke-width="2"/><line x1="83.0" y1="108.0" x2="79.0" y2="108.0" stroke="#475569" stroke-width="2"/><line x1="90.3" y1="90.3" x2="87.5" y2="87.5" stroke="#475569" stroke-width="2"/><line x1="108.0" y1="83.0" x2="108.0" y2="79.0" stroke="#475569" stroke-width="2"/><line x1="125.7" y1="90.3" x2="128.5" y2="87.5" stroke="#475569" stroke-width="2"/><circle cx="192" cy="108" r="22" fill="none" stroke="#475569" stroke-width="4"/><circle cx="192" cy="108" r="3" fill="#475569"/><line x1="192" y1="108" x2="192" y2="90" stroke="#475569" stroke-width="4" stroke-linecap="round"/><line x1="217.0" y1="108.0" x2="221.0" y2="108.0" stroke="#475569" stroke-width="2"/><line x1="209.7" y1="125.7" x2="212.5" y2="128.5" stroke="#475569" stroke-width="2"/><line x1="192.0" y1="133.0" x2="192.0" y2="137.0" stroke="#475569" stroke-width="2"/><line x1="174.3" y1="125.7" x2="171.5" y2="128.5" stroke="#475569" stroke-width="2"/><line x1="167.0" y1="108.0" x2="163.0" y2="108.0" stroke="#475569" stroke-width="2"/><line x1="174.3" y1="90.3" x2="171.5" y2="87.5" stroke="#475569" stroke-width="2"/><line x1="192.0" y1="83.0" x2="192.0" y2="79.0" stroke="#475569" stroke-width="2"/><line x1="209.7" y1="90.3" x2="212.5" y2="87.5" stroke="#475569" stroke-width="2"/><polyline points="118.0,176.0 121.2,171.3 124.4,168.4 127.6,168.4 130.8,171.3 134.0,176.0 137.2,180.7 140.4,183.6 143.6,183.6 146.8,180.7 150.0,176.0 153.2,171.3 156.4,168.4 159.6,168.4 162.8,171.3 166.0,176.0 169.2,180.7 172.4,183.6 175.6,183.6 178.8,180.7 182.0,176.0" fill="none" stroke="#475569" stroke-width="3" stroke-linecap="round"/><polyline points="118.0,168.0 121.2,169.7 124.4,173.8 127.6,178.7 130.8,182.6 134.0,184.0 137.2,182.3 140.4,178.2 143.6,173.3 146.8,169.4 150.0,168.0 153.2,169.7 156.4,173.8 159.6,178.7 162.8,182.6 166.0,184.0 169.2,182.3 172.4,178.2 175.6,173.3 178.8,169.4 182.0,168.0" fill="none" stroke="#475569" stroke-width="3" stroke-linecap="round"/><text x="150" y="246" text-anchor="middle" font-family="'Press Start 2P',monospace" font-size="21" fill="#475569">LUSH</text><polygon points="170.3,308.4 158.4,320.3 141.6,320.3 129.7,308.4 129.7,291.6 141.6,279.7 158.4,279.7 170.3,291.6" fill="none" stroke="#475569" stroke-width="4"/><circle cx="150" cy="300" r="9" fill="none" stroke="#475569" stroke-width="3"/><text x="150" y="390" text-anchor="middle" font-family="Helvetica,Arial,sans-serif" font-size="22" fill="#475569">Lush</text></svg>