<svg xmlns="http://www.w3.org/2000/svg" viewBox="0 0 300 410" role="img" aria-label="TapeHack pedal icon"><style>@import url('https://fonts.googleapis.com/css2?family=Press+Start+2P&amp;display=swap');</style><rect x="6" y="70" width="10" height="22" rx="2" fill="none" stroke="#475569" stroke-width="3"/><rect x="284" y="70" width="10" height="22" rx="2" fill="none" stroke="#475569" stroke-width="3"/><rect x="16" y="16" width="268" height="334" rx="12" fill="none" stroke="#475569" stroke-width="5"/><text x="78" y="56" text-anchor="middle" font-family="'Press Start 2P',monospace" font-size="11" fill="#475569">IN</text><text x="150" y="56" text-anchor="middle" font-family="'Press Start 2P',monospace" font-size="11" fill="#475569">DRIVE</text><text x="222" y="56" text-anchor="middle" font-family="'Press Start 2P',monospace" font-size="11" fill="#475569">OUT</text><circle cx="78" cy="108" r="22" fill="none" stroke="#475569" stroke-width="4"/><circle cx="78" cy="108" r="3" fill="#475569"/><line x1="78" y1="108" x2="78" y2="90" stroke="#475569" stroke-width="4" stroke-linecap="round"/><line x1="103.0" y1="108.0" x2="107.0" y2="108.0" stroke="#475569" stroke-width="2"/><line x1="95.7" y1="125.7" x2="98.5" y2="128.5" stroke="#475569" stroke-width="2"/><line x1="78.0" y1="133.0" x2="78.0" y2="137.0" stroke="#475569" stroke-width="2"/><line x1="60.3" y1="125.7" x2="57.5" y2="128.5" stroke="#475569" stroke-width="2"/><line x1="53.0" y1="108.0" x2="49.0" y2="108.0" stroke="#475569" stroke-width="2"/><line x1="60.3" y1="90.3" x2="57.5" y2="87.5" stroke="#475569" stroke-width="2"/><line x1="78.0" y1="83.0" x2="78.0" y2="79.0" stroke="#475569" stroke-width="2"/><line x1="95.7" y1="90.3" x2="98.5" y2="87.5" stroke="#475569" stroke-width="2"/><circle cx="150" cy="108" r="22" fill="none" stroke="#475569" stroke-width="4"/><circle cx="150" cy="108" r="3" fill="#475569"/><line x1="150" y1="108" x2="150" y2="90" stroke="#475569" stroke-width="4" stroke-linecap="round"/><line x1="175.0" y1="108.0" x2="179.0" y2="108.0" stroke="#475569" stroke-width="2"/><line x1="167.7" y1="125.7" x2="170.5" y2="128.5" stroke="#475569" stroke-width="2"/><line x1="150.0" y1="133.0" x2="150.0" y2="137.0" stroke="#475569" stroke-width="2"/><line x1="132.3" y1="125.7" x2="129.5" y2="128.5" stroke="#475569" stroke-width="2"/><line x1="125.0" y1="108.0" x2="121.0" y2="108.0" stroke="#475569" stroke-width="2"/><line x1="132.3" y1="90.3" x2="129.5" y2="87.5" stroke="#475569" stroke-width="2"/><line x1="150.0" y1="83.0" x2="150.0" y2="79.0" stroke="#475569" stroke-width="2"/><line x1="167.7" y1="90.3" x2="170.5" y2="87.5" stroke="#475569" stroke-width="2"/><circle cx="222" cy="108" r="22" fill="none" stroke="#475569" stroke-width="4"/><circle cx="222" cy="108" r="3" fill="#475569"/><line x1="222" y1="108" x2="222" y2="90" stroke="#475569" stroke-width="4" stroke-linecap="round"/><line x1="247.0" y1="108.0" x2="251.0" y2="108.0" stroke="#475569" stroke-width="2"/><line x1="239.7" y1="125.7" x2="242.5" y2="128.5" stroke="#475569" stroke-width="2"/><line x1="222.0" y1="133.0" x2="222.0" y2="137.0" stroke="#475569" stroke-width="2"/><line x1="204.3" y1="125.7" x2="201.5" y2="128.5" stroke="#475569" stroke-width="2"/><line x1="197.0" y1="108.0" x2="193.0" y2="108.0" stroke="#475569" stroke-width="2"/><line x1="204.3" y1="90.3" x2="201.5" y2="87.5" stroke="#475569" stroke-width="2"/><line x1="222.0" y1="83.0" x2="222.0" y2="79.0" stroke="#475569" stroke-width="2"/><line x1="239.7" y1="90.3" x2="242.5" y2="87.5" stroke="#475569" stroke-width="2"/><circle cx="150" cy="172" r="16" fill="none" stroke="#475569" stroke-width="3"/><circle cx="150" cy="172" r="3.5" fill="#475569"/><line x1="150.0" y1="167.0" x2="150.0" y2="159.0" stroke="#475569" stroke-width="2"/><line x1="145.7" y1="174.5" x2="138.7" y2="178.5" stroke="#475569" stroke-width="2"/><line x1="154.3" y1="174.5" x2="161.3" y2="178.5" stroke="#475569" stroke-width="2"/><line x1="170.0" y1="172.0" x2="180.0" y2="172.0" stroke="#475569" stroke-width="3" stroke-linecap="round"/><line x1="164.1" y1="157.9" x2="171.2" y2="150.8" stroke="#475569" stroke-width="3" stroke-linecap="round"/><line x1="150.0" y1="152.0" x2="150.0" y2="142.0" stroke="#475569" stroke-width="3" stroke-linecap="round"/><line x1="135.9" y1="157.9" x2="128.8" y2="150.8" stroke="#475569" stroke-width="3" stroke-linecap="round"/><line x1="130.0" y1="172.0" x2="120.0" y2="172.0" stroke="#475569" stroke-width="3" stroke-linecap="round"/><line x1="135.9" y1="186.1" x2="128.8" y2="193.2" stroke="#475569" stroke-width="3" stroke-linecap="round"/><line x1="150.0" y1="192.0" x2="150.0" y2="202.0" stroke="#475569" stroke-width="3" stroke-linecap="round"/><line x1="164.1" y1="186.1" x2="171.2" y2="193.2" stroke="#475569" stroke-width="3" stroke-linecap="round"/><circle cx="110" cy="138" r="2" fill="#475569"/><circle cx="190" cy="138" r="2" fill="#475569"/><circle cx="110" cy="206" r="2" fill="#475569"/><circle cx="190" cy="206" r="2" fill="#475569"/><text x="150" y="246" text-anchor="middle" font-family="'Press Start 2P',monospace" font-size="17" fill="#475569">TAPEHACK</text><polygon points="170.3,308.4 158.4,320.3 141.6,320.3 129.7,308.4 129.7,291.6 141.6,279.7 158.4,279.7 170.3,291.6" fill="none" stroke="#475569" stroke-width="4"/><circle cx="150" cy="300" r="9" fill="none" stroke="#475569" stroke-width="3"/><text x="150" y="390" text-anchor="middle" font-family="Helvetica,Arial,sans-serif" font-size="22" fill="#475569">TapeHack</text></svg>